<?xml version="1.0" standalone="no"?>
<!DOCTYPE svg PUBLIC "-//W3C//DTD SVG 20010904//EN"
 "http://www.w3.org/TR/2001/REC-SVG-20010904/DTD/svg10.dtd">
<svg version="1.0" xmlns="http://www.w3.org/2000/svg"
 width="400.000000pt" height="140.000000pt" viewBox="0 0 400.000000 140.000000"
 preserveAspectRatio="xMidYMid meet">

<g transform="translate(0.000000,140.000000) scale(0.100000,-0.100000)"
fill="#373737" stroke="none">
<path d="M1041 1263 c21 -39 21 -80 3 -256 -11 -104 51 -254 154 -377 l30 -35
13 45 c9 29 13 102 14 205 l0 160 -37 74 c-24 47 -30 67 -19 57 57 -52 97
-226 89 -385 -4 -80 -4 -84 9 -53 8 19 20 75 27 125 25 168 -14 293 -120 387
-35 30 -109 69 -161 84 l-21 7 19 -38z"/>
<path d="M1545 888 c-64 -24 -121 -69 -176 -138 -51 -64 -58 -78 -23 -50 113
92 138 110 179 130 25 12 64 24 88 26 42 4 41 4 -11 -11 -91 -26 -205 -117
-284 -228 l-22 -30 75 6 c139 11 231 57 306 151 26 34 61 65 90 80 l47 23 -44
23 c-52 27 -176 37 -225 18z"/>
<path d="M2761 738 c-61 -31 -82 -63 -88 -136 l-6 -62 -33 0 c-34 0 -34 -1
-34 -45 0 -45 0 -45 35 -45 l35 0 0 -170 0 -170 65 0 65 0 0 170 0 170 45 0
45 0 0 45 0 45 -45 0 -45 0 0 44 c0 58 20 79 72 74 l39 -4 -3 51 -3 50 -50 3
c-37 2 -62 -3 -94 -20z"/>
<path d="M642 730 c-46 -43 -13 -110 53 -110 66 0 99 67 53 110 -12 11 -35 20
-53 20 -18 0 -41 -9 -53 -20z"/>
<path d="M2150 625 l0 -124 -36 24 c-66 45 -176 23 -224 -45 -62 -87 -65 -232
-7 -314 25 -35 89 -65 140 -66 43 0 111 31 126 57 9 15 10 13 11 -14 l0 -33
60 0 60 0 0 320 0 320 -65 0 -65 0 0 -125z m-16 -206 c20 -24 26 -41 26 -80 0
-89 -34 -139 -95 -139 -57 0 -95 47 -95 119 0 82 37 131 99 131 32 0 44 -6 65
-31z"/>
<path d="M2412 730 c-46 -43 -13 -110 53 -110 66 0 99 67 53 110 -12 11 -35
20 -53 20 -18 0 -41 -9 -53 -20z"/>
<path d="M2972 730 c-46 -43 -13 -110 53 -110 66 0 99 67 53 110 -12 11 -35
20 -53 20 -18 0 -41 -9 -53 -20z"/>
<path d="M90 416 l0 -306 133 0 c190 0 251 22 288 104 39 85 13 161 -69 202
l-42 22 35 21 c97 57 98 182 1 234 -36 19 -60 22 -193 25 l-153 4 0 -306z
m260 184 c25 -25 26 -71 2 -100 -14 -18 -32 -24 -75 -28 l-57 -4 0 76 0 76 55
0 c42 0 60 -5 75 -20z m25 -255 c16 -15 25 -36 25 -55 0 -19 -9 -40 -25 -55
-21 -22 -33 -25 -90 -25 l-65 0 0 80 0 80 65 0 c57 0 69 -3 90 -25z"/>
<path d="M1000 541 c-101 -31 -160 -111 -160 -215 0 -146 110 -239 265 -223
119 12 190 82 202 201 15 144 -83 248 -231 245 -28 0 -62 -4 -76 -8z m132
-102 c25 -13 48 -68 48 -114 0 -46 -23 -101 -48 -114 -26 -14 -88 -14 -114 0
-60 32 -63 175 -5 221 25 20 88 23 119 7z"/>
<path d="M1515 539 c-81 -31 -132 -100 -142 -195 -19 -182 130 -286 325 -229
l52 16 0 49 0 49 -46 -21 c-68 -30 -138 -21 -176 21 -52 58 -45 61 118 61
l146 0 -4 63 c-8 124 -66 186 -180 193 -35 2 -76 -1 -93 -7z m134 -105 c12
-15 21 -35 21 -45 0 -17 -9 -19 -86 -19 -84 0 -85 0 -79 23 21 68 104 92 144
41z"/>
<path d="M3318 536 c-89 -34 -137 -99 -145 -197 -7 -76 15 -136 67 -183 48
-43 107 -60 185 -53 91 9 95 11 95 69 0 44 -2 49 -17 43 -34 -14 -120 -17
-142 -5 -79 42 -79 185 -1 225 33 17 106 17 143 1 15 -7 17 -2 17 42 0 28 -5
54 -12 58 -23 14 -152 14 -190 0z"/>
<path d="M3697 540 c-68 -17 -77 -26 -77 -75 0 -25 1 -45 3 -45 2 0 22 9 45
20 55 27 125 27 153 -1 36 -36 22 -52 -62 -65 -95 -15 -127 -30 -157 -74 -49
-72 -7 -181 75 -196 51 -10 103 4 135 36 l28 28 0 -29 c0 -29 0 -29 61 -29
l61 0 -4 169 c-3 184 -7 197 -70 244 -30 22 -132 31 -191 17z m143 -261 c0
-37 -47 -89 -81 -89 -49 0 -78 62 -43 90 8 8 32 17 52 21 68 13 72 12 72 -22z"/>
<path d="M630 325 l0 -215 65 0 65 0 0 215 0 215 -65 0 -65 0 0 -215z"/>
<path d="M2400 325 l0 -215 65 0 65 0 0 215 0 215 -65 0 -65 0 0 -215z"/>
<path d="M2960 325 l0 -215 65 0 65 0 0 215 0 215 -65 0 -65 0 0 -215z"/>
</g>
</svg>
