<svg id="svg" xmlns="http://www.w3.org/2000/svg" xmlns:xlink="http://www.w3.org/1999/xlink" width="400" height="140.032414910859" viewBox="0, 0, 400,140.032414910859" version="1.1"><g id="svgg"><path id="path1" d="M160.833 0.223 C 160.833 0.346,161.175 0.809,161.592 1.251 C 162.010 1.693,162.457 2.306,162.585 2.613 C 162.713 2.920,162.934 3.216,163.076 3.270 C 163.221 3.326,163.333 3.568,163.333 3.825 C 163.333 4.076,163.488 4.421,163.676 4.592 C 163.905 4.799,163.988 5.025,163.926 5.272 C 163.864 5.520,163.970 5.803,164.250 6.136 C 164.548 6.491,164.667 6.828,164.667 7.324 C 164.667 7.705,164.781 8.238,164.921 8.508 C 165.341 9.321,165.339 18.033,164.918 18.833 C 164.701 19.246,164.617 19.742,164.630 20.530 C 164.645 21.415,164.580 21.732,164.312 22.073 C 164.108 22.333,163.986 22.715,164.004 23.042 C 164.055 23.974,164.010 24.157,163.638 24.529 C 163.348 24.819,163.270 25.109,163.245 25.987 C 163.229 26.590,163.117 27.850,162.998 28.786 C 162.822 30.162,162.820 30.802,162.987 32.119 C 163.101 33.016,163.213 34.540,163.237 35.506 C 163.270 36.899,163.345 37.362,163.595 37.745 C 163.817 38.082,163.912 38.530,163.914 39.238 C 163.916 40.062,163.986 40.319,164.291 40.624 C 164.562 40.895,164.657 41.174,164.639 41.639 C 164.621 42.103,164.717 42.383,164.985 42.651 C 165.273 42.940,165.331 43.133,165.245 43.524 C 165.159 43.915,165.218 44.117,165.511 44.428 C 165.767 44.701,165.881 45.015,165.866 45.408 C 165.851 45.805,165.975 46.143,166.261 46.483 C 166.554 46.831,166.649 47.095,166.580 47.372 C 166.511 47.645,166.585 47.859,166.824 48.075 C 167.012 48.245,167.167 48.589,167.167 48.839 C 167.167 49.088,167.270 49.378,167.397 49.483 C 167.523 49.588,167.673 49.906,167.730 50.190 C 167.786 50.473,168.095 51.138,168.416 51.666 C 168.737 52.195,169.000 52.699,169.000 52.788 C 169.000 52.876,169.150 53.084,169.333 53.250 C 169.517 53.416,169.667 53.677,169.667 53.829 C 169.667 53.982,169.854 54.270,170.083 54.469 C 170.313 54.668,170.500 54.965,170.500 55.129 C 170.500 55.292,170.650 55.554,170.833 55.711 C 171.017 55.868,171.167 56.168,171.167 56.376 C 171.167 56.585,171.467 57.119,171.833 57.563 C 172.200 58.007,172.500 58.469,172.500 58.590 C 172.500 58.711,172.754 59.079,173.064 59.408 C 173.375 59.737,173.723 60.233,173.837 60.509 C 173.951 60.785,174.227 61.155,174.450 61.330 C 174.673 61.505,175.067 62.062,175.325 62.567 C 175.810 63.516,176.034 63.787,176.590 64.101 C 176.770 64.202,177.394 64.989,177.978 65.851 C 178.562 66.712,179.196 67.529,179.388 67.667 C 179.579 67.804,180.215 68.385,180.801 68.958 C 182.155 70.283,182.406 70.256,182.308 68.795 C 182.284 68.440,182.411 67.998,182.645 67.618 C 182.957 67.114,183.002 66.876,182.907 66.240 C 182.809 65.588,182.850 65.393,183.181 64.944 C 183.512 64.497,183.576 64.200,183.598 62.992 C 183.614 62.109,183.718 61.380,183.872 61.075 C 184.271 60.284,184.361 59.672,184.165 59.079 C 184.011 58.611,184.048 58.333,184.404 57.302 C 184.805 56.141,184.942 54.591,184.806 52.750 C 184.786 52.475,184.905 51.102,185.071 49.699 C 185.427 46.683,185.358 40.161,184.952 38.417 C 184.798 37.755,184.768 37.247,184.865 36.917 C 185.069 36.219,184.854 34.002,184.533 33.500 C 184.369 33.242,184.257 32.661,184.240 31.973 C 184.220 31.155,184.116 30.707,183.845 30.269 C 183.550 29.791,183.500 29.533,183.588 28.946 C 183.683 28.310,183.642 28.157,183.265 27.751 C 182.961 27.422,182.833 27.101,182.833 26.663 C 182.833 26.313,182.724 25.950,182.583 25.833 C 182.446 25.719,182.333 25.366,182.333 25.048 C 182.333 24.722,182.188 24.284,182.000 24.045 C 181.817 23.812,181.666 23.501,181.666 23.353 C 181.665 22.878,180.889 21.160,180.522 20.818 C 180.327 20.636,180.167 20.320,180.167 20.116 C 180.167 19.720,179.419 18.500,179.177 18.500 C 179.097 18.500,178.751 18.069,178.408 17.542 C 178.064 17.015,177.494 16.153,177.141 15.627 C 176.410 14.536,176.363 14.333,176.840 14.333 C 177.493 14.333,180.833 18.010,180.833 18.727 C 180.833 18.863,181.096 19.318,181.417 19.739 C 181.737 20.159,182.000 20.641,182.000 20.809 C 182.000 20.977,182.150 21.251,182.333 21.417 C 182.517 21.583,182.667 21.809,182.667 21.920 C 182.667 22.031,182.817 22.312,183.000 22.545 C 183.183 22.779,183.333 23.197,183.333 23.476 C 183.333 23.789,183.497 24.159,183.762 24.446 C 184.041 24.746,184.166 25.040,184.119 25.283 C 184.076 25.510,184.170 25.769,184.357 25.938 C 184.536 26.100,184.667 26.444,184.667 26.753 C 184.667 27.048,184.817 27.479,185.000 27.712 C 185.183 27.945,185.334 28.387,185.334 28.693 C 185.335 28.999,185.479 29.467,185.653 29.732 C 185.871 30.063,185.944 30.385,185.883 30.759 C 185.820 31.147,185.928 31.582,186.261 32.276 C 186.611 33.005,186.724 33.481,186.711 34.167 C 186.701 34.704,186.830 35.459,187.024 35.991 C 187.205 36.491,187.350 37.203,187.345 37.575 C 187.321 39.624,187.376 40.532,187.586 41.583 C 187.966 43.479,188.222 46.918,188.013 47.309 C 187.788 47.730,187.773 52.076,187.995 52.492 C 188.194 52.863,187.938 56.789,187.582 58.833 C 187.196 61.041,187.240 63.333,187.667 63.333 C 187.995 63.333,188.094 63.042,188.025 62.275 C 188.010 62.106,188.188 61.742,188.420 61.466 C 188.716 61.114,188.830 60.799,188.804 60.408 C 188.780 60.051,188.881 59.724,189.085 59.498 C 189.305 59.255,189.395 58.931,189.376 58.450 C 189.358 58.002,189.471 57.544,189.694 57.168 C 189.934 56.763,190.034 56.322,190.021 55.729 C 190.007 55.077,190.091 54.762,190.376 54.400 C 190.676 54.019,190.750 53.709,190.752 52.837 C 190.754 52.056,190.842 51.620,191.066 51.288 C 191.310 50.925,191.373 50.538,191.359 49.482 C 191.346 48.459,191.418 47.987,191.662 47.510 C 191.878 47.086,191.983 46.535,191.984 45.816 C 191.985 45.230,191.989 44.386,191.993 43.942 C 191.996 43.497,192.124 42.672,192.276 42.109 C 192.665 40.665,192.683 36.757,192.306 35.500 C 192.132 34.922,192.031 33.992,192.032 32.982 C 192.033 31.801,191.959 31.237,191.750 30.834 C 191.592 30.527,191.443 29.789,191.412 29.153 C 191.371 28.305,191.264 27.893,190.989 27.521 C 190.720 27.157,190.647 26.888,190.720 26.525 C 190.791 26.171,190.725 25.908,190.493 25.612 C 190.314 25.384,190.166 24.947,190.166 24.640 C 190.165 24.334,190.015 23.858,189.833 23.583 C 189.651 23.308,189.502 22.948,189.501 22.783 C 189.500 22.618,189.361 22.205,189.192 21.866 C 189.022 21.527,188.553 20.589,188.150 19.781 C 187.747 18.973,187.285 18.193,187.125 18.047 C 186.965 17.901,186.833 17.646,186.833 17.480 C 186.833 17.314,186.689 17.101,186.513 17.007 C 186.336 16.912,186.001 16.419,185.768 15.910 C 185.535 15.401,185.061 14.702,184.714 14.357 C 183.841 13.488,183.187 12.689,182.910 12.154 C 182.633 11.618,180.514 9.667,180.210 9.667 C 180.093 9.667,179.831 9.474,179.626 9.239 C 179.422 9.004,179.010 8.661,178.711 8.476 C 178.411 8.291,178.167 8.067,178.167 7.978 C 178.167 7.765,177.304 7.012,177.051 7.005 C 176.941 7.002,176.570 6.742,176.226 6.426 C 175.881 6.111,175.408 5.805,175.175 5.747 C 174.941 5.689,174.600 5.509,174.417 5.347 C 173.782 4.785,172.038 3.833,171.643 3.833 C 171.425 3.833,171.153 3.683,171.039 3.500 C 170.924 3.317,170.667 3.167,170.468 3.167 C 170.268 3.167,169.950 3.023,169.761 2.848 C 169.572 2.672,169.166 2.490,168.860 2.443 C 168.554 2.396,168.173 2.240,168.013 2.095 C 167.854 1.951,167.498 1.833,167.221 1.833 C 166.928 1.833,166.591 1.693,166.412 1.495 C 166.196 1.256,165.929 1.167,165.504 1.192 C 165.095 1.216,164.735 1.104,164.380 0.841 C 164.044 0.593,163.728 0.489,163.496 0.549 C 163.034 0.670,162.667 0.530,162.667 0.232 C 162.667 0.062,162.422 0.000,161.750 0.000 C 161.095 0.000,160.833 0.064,160.833 0.223 M221.101 39.676 C 220.653 39.751,220.090 39.887,219.851 39.978 C 219.612 40.069,218.763 40.133,217.963 40.121 C 216.653 40.102,216.469 40.138,216.095 40.489 C 215.780 40.785,215.564 40.854,215.188 40.779 C 214.838 40.709,214.573 40.776,214.279 41.007 C 214.037 41.197,213.607 41.333,213.248 41.333 C 212.831 41.333,212.469 41.470,212.130 41.755 C 211.836 42.003,211.510 42.139,211.342 42.086 C 211.175 42.033,210.929 42.135,210.752 42.331 C 210.585 42.516,210.238 42.667,209.980 42.667 C 209.682 42.667,209.447 42.788,209.333 43.000 C 209.235 43.183,209.008 43.333,208.829 43.333 C 208.650 43.333,208.408 43.485,208.293 43.671 C 208.178 43.857,207.793 44.087,207.438 44.183 C 207.083 44.279,206.596 44.569,206.355 44.827 C 206.114 45.085,205.525 45.493,205.046 45.732 C 204.568 45.972,204.015 46.385,203.819 46.651 C 203.623 46.916,202.783 47.647,201.954 48.275 C 200.219 49.588,199.047 50.768,197.860 52.396 C 197.401 53.026,196.767 53.755,196.452 54.014 C 196.137 54.274,195.565 55.015,195.181 55.661 C 194.797 56.308,194.313 56.948,194.105 57.085 C 193.896 57.221,193.548 57.689,193.331 58.124 C 193.113 58.559,192.808 59.028,192.652 59.166 C 192.496 59.304,192.239 59.772,192.079 60.206 C 191.920 60.640,191.687 61.081,191.562 61.185 C 191.436 61.289,191.333 61.550,191.333 61.765 C 191.333 61.984,191.188 62.233,191.000 62.333 C 190.817 62.431,190.667 62.584,190.667 62.673 C 190.667 63.030,191.144 62.794,191.775 62.125 C 193.114 60.707,195.939 58.045,196.322 57.839 C 196.805 57.581,199.512 55.128,200.667 53.902 C 200.896 53.659,201.392 53.326,201.769 53.162 C 202.147 52.998,202.610 52.647,202.799 52.382 C 202.988 52.116,203.542 51.704,204.030 51.464 C 204.517 51.225,205.099 50.834,205.323 50.596 C 205.546 50.358,206.128 49.980,206.616 49.756 C 207.105 49.533,207.549 49.234,207.603 49.092 C 207.658 48.950,207.845 48.833,208.019 48.833 C 208.193 48.833,208.499 48.646,208.698 48.417 C 208.897 48.188,209.222 48.000,209.421 48.000 C 209.619 48.000,209.917 47.850,210.083 47.667 C 210.249 47.483,210.512 47.333,210.667 47.333 C 210.822 47.333,211.084 47.183,211.250 47.000 C 211.416 46.817,211.756 46.667,212.005 46.667 C 212.255 46.667,212.553 46.554,212.667 46.417 C 212.781 46.279,213.051 46.167,213.266 46.167 C 213.482 46.167,213.904 46.017,214.204 45.834 C 214.504 45.651,214.946 45.501,215.186 45.501 C 215.426 45.500,215.832 45.335,216.089 45.132 C 216.409 44.881,216.760 44.773,217.200 44.790 C 217.591 44.806,218.073 44.681,218.429 44.471 C 218.906 44.189,219.170 44.146,219.856 44.237 C 220.407 44.310,220.778 44.282,220.932 44.154 C 221.224 43.912,224.086 44.020,224.349 44.283 C 224.739 44.672,222.078 45.348,220.359 45.296 C 219.410 45.268,219.150 45.322,218.757 45.631 C 218.499 45.834,218.067 46.000,217.795 46.000 C 217.524 46.000,217.110 46.152,216.874 46.337 C 216.618 46.538,216.239 46.660,215.932 46.639 C 215.613 46.617,214.862 46.870,213.962 47.302 C 213.161 47.686,212.449 48.001,212.378 48.002 C 212.308 48.003,211.921 48.265,211.518 48.585 C 211.116 48.905,210.693 49.167,210.579 49.167 C 210.465 49.167,210.256 49.344,210.114 49.560 C 209.972 49.777,209.621 50.001,209.334 50.058 C 209.047 50.116,208.601 50.373,208.345 50.630 C 208.088 50.887,207.519 51.281,207.081 51.507 C 206.643 51.732,205.882 52.305,205.390 52.780 C 204.898 53.254,204.215 53.811,203.873 54.017 C 203.058 54.508,201.670 55.772,201.255 56.400 C 200.807 57.079,199.021 58.814,198.484 59.091 C 198.244 59.216,197.952 59.546,197.837 59.825 C 197.721 60.105,197.557 60.333,197.473 60.333 C 197.214 60.333,195.686 61.845,195.301 62.482 C 194.595 63.651,192.981 65.633,192.670 65.714 C 192.496 65.760,192.143 66.196,191.885 66.684 C 191.627 67.172,191.108 67.874,190.731 68.244 C 190.032 68.930,189.186 70.794,189.410 71.156 C 189.588 71.443,193.098 71.374,194.167 71.062 C 194.765 70.887,195.806 70.786,197.167 70.771 C 198.838 70.753,199.365 70.688,199.833 70.442 C 200.243 70.226,200.739 70.140,201.500 70.154 C 202.298 70.168,202.748 70.085,203.208 69.837 C 203.554 69.650,204.148 69.500,204.541 69.499 C 204.955 69.499,205.477 69.360,205.796 69.166 C 206.096 68.983,206.622 68.833,206.965 68.833 C 207.308 68.833,207.868 68.683,208.210 68.500 C 208.552 68.317,209.090 68.167,209.404 68.167 C 209.719 68.167,210.077 68.066,210.200 67.943 C 210.580 67.563,211.181 67.303,211.444 67.404 C 211.583 67.457,211.887 67.351,212.121 67.167 C 212.354 66.984,212.722 66.833,212.939 66.833 C 213.156 66.833,213.333 66.761,213.333 66.673 C 213.333 66.585,213.625 66.434,213.981 66.339 C 214.337 66.243,214.721 66.052,214.834 65.915 C 214.948 65.779,215.170 65.667,215.328 65.667 C 215.486 65.667,215.751 65.517,215.917 65.333 C 216.083 65.150,216.357 65.000,216.527 65.000 C 216.697 65.000,216.999 64.813,217.198 64.583 C 217.397 64.354,217.722 64.167,217.919 64.167 C 218.116 64.167,218.534 63.915,218.847 63.607 C 219.160 63.299,219.620 62.998,219.868 62.939 C 220.647 62.752,225.402 57.826,225.578 57.022 C 225.642 56.733,225.835 56.421,226.008 56.329 C 226.181 56.236,226.530 55.806,226.782 55.372 C 227.418 54.281,232.978 48.667,233.423 48.667 C 233.612 48.667,233.842 48.591,233.934 48.499 C 234.291 48.143,236.949 46.882,237.544 46.787 C 237.889 46.732,238.375 46.527,238.623 46.332 C 238.940 46.082,239.275 45.987,239.746 46.011 C 240.687 46.059,240.834 46.029,240.827 45.792 C 240.820 45.551,239.602 44.667,239.277 44.667 C 239.157 44.667,238.882 44.479,238.667 44.250 C 238.451 44.021,238.204 43.833,238.118 43.833 C 238.031 43.833,237.528 43.571,237.000 43.250 C 236.472 42.929,235.936 42.667,235.809 42.667 C 235.682 42.667,235.290 42.512,234.937 42.323 C 234.584 42.134,234.184 42.022,234.048 42.074 C 233.912 42.126,233.570 41.975,233.288 41.738 C 232.886 41.399,232.663 41.328,232.247 41.406 C 231.861 41.479,231.604 41.415,231.291 41.169 C 231.016 40.953,230.614 40.833,230.160 40.833 C 229.724 40.833,229.228 40.693,228.858 40.464 C 228.355 40.153,227.993 40.090,226.588 40.066 C 225.573 40.049,224.596 39.932,224.099 39.769 C 223.225 39.482,222.411 39.456,221.101 39.676 M24.148 62.371 C 24.038 62.579,23.812 62.846,23.647 62.963 C 23.482 63.080,23.297 63.455,23.236 63.796 C 23.174 64.138,23.027 64.529,22.908 64.667 C 22.655 64.961,22.210 66.127,21.976 67.114 C 21.885 67.497,21.704 67.900,21.572 68.009 C 21.441 68.118,21.333 68.314,21.333 68.444 C 21.333 68.574,21.183 68.974,21.000 69.333 C 20.817 69.693,20.667 70.241,20.667 70.551 C 20.667 70.903,20.542 71.228,20.333 71.417 C 20.150 71.583,20.000 71.822,20.000 71.949 C 20.000 72.076,19.844 72.486,19.653 72.861 C 19.462 73.235,19.343 73.685,19.389 73.861 C 19.437 74.044,19.343 74.301,19.168 74.465 C 18.838 74.774,18.167 76.597,18.167 77.184 C 18.167 77.383,17.979 77.719,17.750 77.931 C 17.462 78.198,17.333 78.493,17.333 78.888 C 17.333 79.202,17.221 79.553,17.083 79.667 C 16.946 79.781,16.833 80.118,16.833 80.417 C 16.833 80.789,16.720 81.035,16.472 81.199 C 16.201 81.379,16.116 81.592,16.133 82.051 C 16.149 82.459,16.051 82.761,15.842 82.957 C 15.669 83.118,15.476 83.453,15.414 83.701 C 15.352 83.950,15.195 84.240,15.067 84.347 C 14.934 84.457,14.833 84.844,14.833 85.245 C 14.833 85.737,14.733 86.039,14.500 86.250 C 14.317 86.416,14.167 86.656,14.167 86.782 C 14.167 86.909,14.010 87.321,13.818 87.696 C 13.621 88.083,13.504 88.558,13.549 88.792 C 13.598 89.051,13.518 89.316,13.333 89.500 C 13.171 89.662,12.945 90.085,12.831 90.439 C 12.717 90.793,12.543 91.185,12.444 91.308 C 12.346 91.432,12.282 91.759,12.303 92.035 C 12.330 92.391,12.218 92.652,11.921 92.927 C 11.676 93.155,11.500 93.501,11.500 93.757 C 11.500 93.999,11.350 94.388,11.167 94.621 C 10.983 94.854,10.831 95.166,10.828 95.314 C 10.825 95.462,10.713 95.729,10.578 95.907 C 10.443 96.085,10.333 96.544,10.333 96.928 C 10.333 97.340,10.233 97.710,10.087 97.830 C 9.710 98.143,9.000 99.754,9.000 100.297 C 9.000 100.570,8.854 100.913,8.667 101.083 C 8.483 101.249,8.332 101.542,8.330 101.734 C 8.328 101.926,8.181 102.404,8.003 102.795 C 7.825 103.187,7.719 103.609,7.767 103.734 C 7.815 103.859,7.662 104.168,7.427 104.421 C 7.192 104.675,6.997 105.040,6.994 105.233 C 6.991 105.426,6.881 105.771,6.750 106.000 C 6.619 106.229,6.509 106.612,6.506 106.851 C 6.503 107.089,6.313 107.487,6.083 107.734 C 5.840 107.997,5.667 108.383,5.667 108.663 C 5.667 108.927,5.554 109.255,5.417 109.393 C 5.279 109.530,5.167 109.893,5.167 110.198 C 5.167 110.573,5.058 110.821,4.833 110.961 C 4.594 111.111,4.500 111.350,4.500 111.809 C 4.500 112.237,4.390 112.548,4.167 112.750 C 3.983 112.916,3.833 113.153,3.833 113.276 C 3.833 113.400,3.683 113.781,3.500 114.123 C 3.317 114.465,3.167 115.000,3.167 115.312 C 3.167 115.640,3.054 115.962,2.901 116.075 C 2.547 116.333,1.947 117.955,1.974 118.583 C 1.987 118.898,1.875 119.176,1.674 119.333 C 1.285 119.636,0.821 120.825,0.712 121.794 C 0.662 122.241,0.513 122.589,0.311 122.730 C -0.233 123.111,0.611 123.167,6.935 123.167 L 12.829 123.167 13.248 122.503 C 13.508 122.091,13.667 121.597,13.667 121.196 C 13.667 120.763,13.776 120.453,14.000 120.250 C 14.201 120.068,14.333 119.737,14.333 119.417 C 14.333 119.097,14.466 118.765,14.667 118.583 C 14.888 118.383,15.000 118.070,15.000 117.653 C 15.000 117.284,15.117 116.907,15.283 116.741 C 15.651 116.372,16.187 114.909,16.227 114.163 C 16.245 113.810,16.406 113.427,16.629 113.204 C 16.871 112.962,17.000 112.631,17.000 112.250 C 17.000 111.889,17.127 111.540,17.333 111.333 C 17.549 111.118,17.667 110.778,17.667 110.370 C 17.667 109.873,17.777 109.644,18.190 109.282 L 18.713 108.823 30.616 108.875 C 43.323 108.931,42.824 108.897,42.831 109.702 C 42.832 109.860,42.984 110.069,43.169 110.168 C 43.391 110.287,43.496 110.499,43.479 110.799 C 43.465 111.047,43.576 111.475,43.726 111.750 C 43.875 112.025,43.998 112.419,43.999 112.627 C 44.000 112.834,44.150 113.132,44.333 113.289 C 44.530 113.457,44.667 113.781,44.667 114.079 C 44.668 114.626,45.253 116.182,45.691 116.802 C 45.841 117.015,45.928 117.321,45.886 117.483 C 45.843 117.648,45.998 118.003,46.238 118.288 C 46.474 118.569,46.667 118.985,46.667 119.213 C 46.667 119.442,46.779 119.843,46.916 120.106 C 47.053 120.369,47.165 120.777,47.166 121.013 C 47.166 121.254,47.349 121.613,47.583 121.833 C 47.813 122.049,48.000 122.398,48.000 122.609 C 48.000 123.207,48.444 123.250,54.683 123.250 C 59.325 123.250,60.503 123.205,60.724 123.021 C 61.063 122.741,61.090 121.704,60.771 121.245 C 60.646 121.065,60.491 120.678,60.427 120.387 C 60.364 120.095,60.204 119.767,60.073 119.658 C 59.941 119.549,59.833 119.297,59.833 119.098 C 59.833 118.900,59.683 118.443,59.500 118.083 C 59.317 117.724,59.167 117.343,59.167 117.237 C 59.167 117.131,59.028 116.866,58.859 116.647 C 58.690 116.429,58.505 115.959,58.449 115.604 C 58.393 115.249,58.232 114.831,58.090 114.675 C 57.949 114.518,57.833 114.302,57.833 114.195 C 57.833 114.087,57.683 113.719,57.500 113.377 C 57.317 113.035,57.167 112.515,57.167 112.223 C 57.167 111.930,57.069 111.591,56.950 111.470 C 56.661 111.178,56.048 109.876,55.905 109.250 C 55.841 108.975,55.645 108.590,55.467 108.395 C 55.290 108.199,55.120 107.765,55.089 107.431 C 55.058 107.097,54.957 106.732,54.864 106.620 C 54.772 106.508,54.644 106.138,54.581 105.798 C 54.517 105.457,54.360 105.092,54.233 104.986 C 54.105 104.879,54.000 104.662,54.000 104.502 C 54.000 104.342,53.861 104.033,53.692 103.814 C 53.523 103.596,53.339 103.126,53.283 102.771 C 53.224 102.396,53.038 102.024,52.840 101.886 C 52.614 101.728,52.500 101.463,52.500 101.094 C 52.500 100.790,52.387 100.447,52.250 100.333 C 52.112 100.219,52.000 99.907,52.000 99.640 C 52.000 99.372,51.850 98.859,51.667 98.500 C 51.483 98.141,51.333 97.765,51.333 97.666 C 51.333 97.567,51.183 97.325,51.000 97.128 C 50.817 96.931,50.666 96.616,50.666 96.427 C 50.665 95.968,49.954 94.243,49.609 93.861 C 49.457 93.694,49.333 93.324,49.333 93.038 C 49.333 92.753,49.268 92.479,49.187 92.429 C 49.107 92.380,48.958 92.011,48.857 91.609 C 48.756 91.208,48.560 90.785,48.420 90.670 C 48.281 90.554,48.167 90.278,48.167 90.056 C 48.167 89.835,48.017 89.359,47.833 89.000 C 47.650 88.641,47.500 88.243,47.500 88.116 C 47.500 87.989,47.350 87.749,47.167 87.583 C 46.983 87.417,46.833 87.077,46.833 86.828 C 46.833 86.301,46.105 84.628,45.745 84.329 C 45.610 84.217,45.500 83.907,45.500 83.640 C 45.500 83.372,45.350 82.859,45.167 82.500 C 44.983 82.141,44.833 81.743,44.833 81.616 C 44.833 81.489,44.683 81.249,44.500 81.083 C 44.317 80.917,44.166 80.587,44.166 80.349 C 44.165 79.819,43.484 78.110,43.109 77.695 C 42.957 77.527,42.831 77.209,42.827 76.987 C 42.824 76.765,42.714 76.396,42.583 76.167 C 42.452 75.938,42.342 75.578,42.339 75.367 C 42.336 75.156,42.137 74.802,41.897 74.580 C 41.627 74.329,41.499 74.075,41.562 73.911 C 41.618 73.766,41.514 73.355,41.332 72.997 C 41.149 72.639,41.000 72.205,41.000 72.032 C 41.000 71.860,40.850 71.583,40.667 71.417 C 40.483 71.251,40.333 70.918,40.333 70.678 C 40.333 70.438,40.227 70.089,40.097 69.904 C 39.967 69.718,39.808 69.287,39.744 68.945 C 39.679 68.597,39.490 68.251,39.314 68.156 C 39.103 68.043,39.000 67.806,39.000 67.431 C 39.000 67.125,38.897 66.789,38.771 66.684 C 38.645 66.579,38.496 66.208,38.440 65.858 C 38.384 65.509,38.187 65.086,38.003 64.919 C 37.818 64.752,37.667 64.409,37.667 64.158 C 37.667 63.906,37.481 63.374,37.254 62.975 C 36.753 62.093,37.328 62.165,29.967 62.066 L 24.350 61.991 24.148 62.371 M230.230 64.101 C 229.691 64.425,229.095 64.835,228.906 65.012 C 228.717 65.189,228.449 65.333,228.310 65.333 C 228.171 65.333,227.882 65.521,227.667 65.750 C 227.446 65.985,227.088 66.167,226.846 66.167 C 226.591 66.167,226.150 66.404,225.761 66.750 C 225.401 67.071,224.972 67.333,224.809 67.333 C 224.645 67.333,224.431 67.483,224.333 67.667 C 224.231 67.859,223.984 68.000,223.752 68.000 C 223.276 68.000,221.960 68.830,221.239 69.584 C 220.958 69.878,220.620 70.154,220.489 70.198 C 220.271 70.271,220.183 73.616,220.333 76.083 C 220.350 76.358,220.309 77.090,220.243 77.708 L 220.121 78.833 218.250 78.833 C 215.374 78.833,214.879 78.935,214.683 79.564 C 214.487 80.192,214.576 87.810,214.782 88.015 C 214.860 88.094,216.160 88.179,217.671 88.204 L 220.417 88.250 220.378 97.083 C 220.307 113.175,220.331 115.023,220.622 115.583 C 220.764 115.858,220.903 116.533,220.929 117.082 C 220.970 117.923,221.046 118.135,221.406 118.422 C 221.641 118.609,221.833 118.925,221.833 119.123 C 221.833 119.646,222.183 120.333,222.449 120.333 C 222.699 120.333,223.833 121.399,223.833 121.634 C 223.833 121.978,226.053 123.193,226.948 123.338 C 227.454 123.421,227.984 123.585,228.126 123.702 C 228.553 124.057,236.196 124.006,236.607 123.646 C 236.778 123.497,237.278 123.337,237.719 123.290 C 238.214 123.238,238.664 123.071,238.896 122.853 C 239.112 122.650,239.491 122.500,239.789 122.500 C 240.769 122.500,241.022 119.184,240.184 117.318 C 239.919 116.725,239.849 116.265,239.879 115.286 C 239.900 114.569,239.841 113.943,239.741 113.843 C 239.484 113.584,237.784 113.935,236.798 114.451 C 235.873 114.935,234.567 114.930,234.027 114.441 C 233.860 114.290,233.575 114.167,233.393 114.167 C 232.784 114.167,232.097 113.251,232.141 112.499 C 232.162 112.133,232.046 111.478,231.882 111.042 C 231.504 110.039,231.440 88.827,231.814 88.453 C 231.955 88.311,233.138 88.225,235.750 88.167 C 238.003 88.116,239.553 88.014,239.657 87.910 C 239.854 87.713,239.959 79.970,239.774 79.400 C 239.639 78.984,238.186 78.833,234.328 78.833 C 232.569 78.833,231.996 78.779,231.847 78.600 C 231.702 78.425,231.682 76.534,231.769 71.120 C 231.906 62.627,231.996 63.040,230.230 64.101 M30.979 78.382 C 31.357 79.096,31.667 79.903,31.667 80.175 C 31.667 80.464,31.806 80.789,32.000 80.955 C 32.226 81.149,32.333 81.447,32.333 81.879 C 32.333 82.230,32.497 82.832,32.696 83.217 C 33.385 84.546,33.470 84.753,33.587 85.380 C 33.654 85.735,33.842 86.082,34.019 86.177 C 34.249 86.300,34.333 86.530,34.333 87.037 C 34.333 87.666,34.628 88.507,35.263 89.692 C 35.393 89.936,35.500 90.330,35.500 90.568 C 35.500 90.821,35.671 91.150,35.908 91.357 C 36.217 91.626,36.294 91.822,36.225 92.165 C 36.168 92.449,36.264 92.872,36.484 93.302 C 36.676 93.679,36.833 94.091,36.833 94.218 C 36.833 94.344,36.983 94.584,37.167 94.750 C 37.367 94.932,37.500 95.263,37.500 95.583 C 37.500 95.892,37.631 96.234,37.813 96.398 C 37.997 96.565,38.163 97.004,38.217 97.466 C 38.267 97.897,38.360 98.417,38.423 98.622 C 38.578 99.128,37.939 99.382,37.096 99.149 C 36.729 99.047,33.723 99.003,29.332 99.033 C 24.641 99.066,22.160 99.026,22.149 98.917 C 22.099 98.439,22.224 97.703,22.419 97.333 C 23.119 96.004,23.333 95.423,23.333 94.858 C 23.333 94.385,23.443 94.132,23.769 93.848 C 24.127 93.536,24.189 93.369,24.114 92.909 C 24.051 92.517,24.113 92.233,24.321 91.966 C 24.484 91.755,24.710 91.303,24.821 90.961 C 24.933 90.618,25.094 90.295,25.179 90.242 C 25.264 90.190,25.333 90.019,25.333 89.863 C 25.333 89.706,25.483 89.299,25.667 88.956 C 25.850 88.614,26.000 88.037,26.000 87.673 C 26.000 87.182,26.086 86.966,26.333 86.833 C 26.588 86.697,26.667 86.484,26.667 85.937 C 26.667 85.430,26.765 85.129,27.000 84.917 C 27.183 84.751,27.333 84.494,27.333 84.347 C 27.333 84.199,27.483 83.799,27.667 83.456 C 27.850 83.114,28.000 82.701,28.000 82.538 C 28.000 82.374,28.113 82.079,28.252 81.882 C 28.390 81.684,28.552 81.168,28.611 80.735 C 28.671 80.302,28.857 79.809,29.026 79.640 C 29.203 79.464,29.333 79.095,29.333 78.772 C 29.333 78.464,29.483 78.021,29.667 77.788 C 29.850 77.555,30.000 77.230,30.000 77.065 C 30.000 76.638,30.191 76.895,30.979 78.382 M83.250 77.925 C 82.098 78.382,81.276 78.530,80.469 78.425 C 79.804 78.340,79.637 78.379,79.348 78.689 C 79.085 78.972,78.838 79.048,78.256 79.026 C 77.665 79.004,77.460 79.069,77.295 79.332 C 77.157 79.554,76.907 79.667,76.553 79.667 C 76.260 79.667,75.976 79.737,75.923 79.823 C 75.870 79.909,75.415 80.215,74.913 80.502 C 74.411 80.789,74.000 81.118,74.000 81.232 C 74.000 81.461,73.394 82.033,72.516 82.636 C 71.190 83.545,69.333 85.666,69.333 86.271 C 69.333 86.491,69.180 86.756,68.986 86.874 C 68.560 87.131,68.000 88.178,68.000 88.718 C 68.000 88.936,67.846 89.255,67.657 89.425 C 67.425 89.636,67.345 89.857,67.409 90.113 C 67.480 90.393,67.397 90.560,67.085 90.764 C 66.709 91.011,66.667 91.148,66.667 92.131 C 66.667 92.911,66.588 93.310,66.392 93.527 C 66.179 93.762,66.110 94.229,66.082 95.623 C 66.058 96.844,65.955 97.656,65.759 98.167 C 65.357 99.216,65.351 101.458,65.746 102.750 C 65.956 103.436,66.058 104.329,66.072 105.593 C 66.089 107.208,66.136 107.491,66.450 107.891 C 66.746 108.267,66.793 108.497,66.723 109.215 C 66.651 109.957,66.698 110.163,67.051 110.633 C 67.279 110.936,67.430 111.314,67.389 111.473 C 67.347 111.633,67.467 111.903,67.656 112.074 C 67.858 112.256,68.003 112.599,68.007 112.901 C 68.011 113.185,68.200 113.717,68.426 114.083 C 68.652 114.450,68.982 115.051,69.159 115.419 C 69.336 115.787,69.748 116.325,70.074 116.613 C 70.400 116.902,70.667 117.294,70.667 117.485 C 70.667 117.998,74.066 121.333,74.589 121.333 C 74.818 121.333,75.064 121.476,75.167 121.667 C 75.265 121.850,75.482 122.000,75.650 122.000 C 75.818 122.000,76.146 122.150,76.379 122.333 C 76.612 122.517,77.010 122.667,77.263 122.667 C 77.516 122.667,77.862 122.791,78.030 122.944 C 78.219 123.115,78.584 123.211,78.982 123.196 C 79.426 123.179,79.775 123.287,80.101 123.544 C 80.819 124.109,86.436 124.118,87.313 123.556 C 87.703 123.306,88.036 123.221,88.397 123.279 C 88.800 123.345,89.024 123.266,89.385 122.932 C 89.641 122.694,90.015 122.498,90.217 122.495 C 90.418 122.492,90.729 122.379,90.907 122.245 C 91.085 122.110,91.361 122.000,91.522 122.000 C 91.682 122.000,92.160 121.700,92.583 121.333 C 93.007 120.967,93.449 120.667,93.566 120.667 C 93.807 120.667,95.900 118.549,96.036 118.167 C 96.394 117.161,96.487 118.851,96.577 128.083 C 96.630 133.492,96.715 138.385,96.766 138.958 L 96.860 140.000 102.575 140.000 L 108.290 140.000 108.393 139.375 C 108.562 138.353,108.512 79.611,108.342 79.342 C 108.143 79.028,106.286 78.961,100.167 79.050 L 97.917 79.083 97.789 80.000 C 97.719 80.504,97.682 81.810,97.706 82.902 C 97.754 85.068,97.571 85.509,97.064 84.446 C 96.911 84.127,96.629 83.793,96.435 83.704 C 96.242 83.615,95.746 83.154,95.333 82.680 C 93.773 80.884,93.173 80.333,92.782 80.333 C 92.567 80.333,92.215 80.146,92.000 79.917 C 91.785 79.688,91.476 79.500,91.314 79.500 C 91.152 79.500,90.973 79.425,90.917 79.333 C 90.860 79.242,90.570 79.167,90.273 79.167 C 89.957 79.167,89.496 78.993,89.167 78.750 C 88.716 78.418,88.405 78.333,87.628 78.333 C 87.019 78.333,86.504 78.234,86.250 78.068 C 85.659 77.681,84.059 77.604,83.250 77.925 M187.750 77.930 C 187.200 78.067,185.804 78.234,184.648 78.301 C 183.492 78.367,182.442 78.504,182.315 78.604 C 182.187 78.705,181.646 78.837,181.112 78.897 C 180.100 79.010,178.796 79.593,178.429 80.095 C 178.303 80.267,178.013 80.380,177.717 80.371 C 177.408 80.362,177.084 80.496,176.867 80.720 C 176.049 81.566,175.882 81.713,175.202 82.183 C 174.809 82.455,174.417 82.863,174.331 83.089 C 174.245 83.315,173.798 83.859,173.338 84.298 C 172.759 84.850,172.500 85.229,172.500 85.523 C 172.500 85.757,172.350 86.084,172.167 86.250 C 171.983 86.416,171.833 86.762,171.833 87.020 C 171.833 87.317,171.712 87.553,171.502 87.666 C 171.320 87.763,171.122 88.047,171.062 88.296 C 171.002 88.546,170.847 88.960,170.718 89.217 C 170.188 90.269,170.979 90.837,172.990 90.851 C 173.957 90.857,174.484 90.946,174.946 91.182 C 175.393 91.410,175.897 91.500,176.664 91.489 C 177.462 91.478,177.925 91.566,178.410 91.821 C 180.051 92.681,180.994 92.213,181.877 90.102 C 182.372 88.919,183.535 87.667,184.139 87.667 C 184.369 87.667,184.687 87.549,184.846 87.405 C 185.660 86.669,192.969 86.664,193.843 87.399 C 194.137 87.647,194.668 87.997,195.022 88.178 C 195.422 88.382,195.667 88.625,195.667 88.818 C 195.667 88.988,195.851 89.249,196.076 89.396 C 196.444 89.637,196.475 89.745,196.389 90.471 C 196.316 91.085,196.378 91.470,196.647 92.077 C 197.188 93.301,196.751 94.500,195.763 94.500 C 195.647 94.500,195.416 94.650,195.250 94.833 C 195.039 95.066,194.737 95.167,194.247 95.167 C 193.773 95.167,193.391 95.288,193.072 95.539 C 192.699 95.832,192.379 95.912,191.567 95.914 C 190.821 95.916,190.446 95.997,190.213 96.208 C 189.992 96.408,189.615 96.500,189.020 96.500 C 188.542 96.500,187.945 96.606,187.695 96.735 C 187.445 96.865,186.605 97.024,185.828 97.088 C 184.937 97.163,184.231 97.318,183.912 97.510 C 183.592 97.703,183.095 97.812,182.555 97.808 C 182.082 97.805,181.529 97.911,181.310 98.048 C 181.094 98.183,180.547 98.340,180.096 98.398 C 179.644 98.455,179.150 98.614,178.999 98.751 C 178.848 98.888,178.482 99.000,178.187 99.000 C 177.829 99.000,177.522 99.138,177.265 99.417 C 177.052 99.646,176.699 99.833,176.479 99.833 C 176.260 99.833,175.991 99.976,175.883 100.149 C 175.774 100.323,175.329 100.602,174.892 100.768 C 174.456 100.935,173.751 101.411,173.325 101.827 C 172.900 102.243,172.202 102.914,171.776 103.317 C 171.349 103.721,171.000 104.196,171.000 104.374 C 171.000 104.552,170.850 104.888,170.667 105.121 C 170.483 105.354,170.333 105.654,170.333 105.788 C 170.333 105.921,170.183 106.221,170.000 106.455 C 169.817 106.688,169.667 107.097,169.667 107.364 C 169.667 107.631,169.547 108.082,169.400 108.366 C 169.018 109.104,169.024 113.566,169.407 113.990 C 169.550 114.147,169.667 114.552,169.667 114.889 C 169.667 115.335,169.780 115.601,170.083 115.864 C 170.340 116.088,170.500 116.404,170.500 116.689 C 170.500 118.100,174.685 122.219,176.500 122.593 C 176.729 122.641,177.194 122.827,177.533 123.006 C 177.872 123.186,178.466 123.333,178.853 123.333 C 179.290 123.333,179.680 123.444,179.880 123.625 C 180.444 124.136,186.955 124.053,187.667 123.526 C 188.082 123.219,188.315 123.162,188.810 123.246 C 189.294 123.328,189.529 123.275,189.867 123.009 C 190.107 122.821,190.434 122.667,190.594 122.667 C 190.990 122.667,192.563 121.909,192.827 121.591 C 192.945 121.449,193.173 121.333,193.335 121.333 C 193.496 121.333,193.751 121.146,193.901 120.917 C 194.051 120.688,194.292 120.500,194.436 120.500 C 194.783 120.500,195.628 119.905,196.254 119.219 C 197.138 118.252,197.965 118.742,198.308 120.436 C 198.890 123.308,198.548 123.167,204.939 123.167 C 210.136 123.167,210.779 123.106,210.248 122.665 C 210.112 122.552,210.000 122.274,210.000 122.048 C 210.000 121.821,209.857 121.454,209.683 121.233 C 209.496 120.996,209.403 120.688,209.455 120.486 C 209.510 120.275,209.396 119.941,209.158 119.619 C 208.906 119.278,208.783 118.903,208.807 118.549 C 208.827 118.249,208.711 117.759,208.549 117.460 C 208.275 116.956,208.250 115.988,208.206 104.083 C 208.160 91.779,208.144 91.222,207.834 90.576 C 207.580 90.045,207.519 89.598,207.547 88.465 C 207.580 87.177,207.545 86.987,207.208 86.628 C 206.969 86.374,206.833 86.020,206.833 85.654 C 206.833 85.261,206.729 85.015,206.500 84.872 C 206.310 84.753,206.167 84.483,206.167 84.243 C 206.167 83.823,206.056 83.696,204.708 82.559 C 204.319 82.230,204.000 81.864,204.000 81.745 C 204.000 80.985,200.024 79.002,198.495 79.001 C 198.046 79.000,197.574 78.882,197.329 78.708 C 197.005 78.479,196.542 78.412,195.167 78.397 C 194.063 78.384,193.169 78.284,192.746 78.126 C 191.708 77.737,188.951 77.629,187.750 77.930 M263.500 78.124 C 263.128 78.292,262.403 78.393,261.500 78.403 C 260.439 78.414,259.980 78.491,259.671 78.709 C 259.419 78.887,258.952 79.000,258.469 79.000 C 257.849 79.000,257.640 79.072,257.500 79.333 C 257.384 79.550,257.151 79.667,256.833 79.667 C 256.516 79.667,256.283 79.783,256.167 80.000 C 256.052 80.214,255.818 80.333,255.513 80.333 C 255.191 80.333,254.951 80.467,254.765 80.750 C 254.615 80.979,254.341 81.167,254.157 81.167 C 253.605 81.167,251.667 82.685,251.667 83.117 C 251.667 83.318,250.109 84.930,249.707 85.145 C 249.526 85.242,249.244 85.606,249.082 85.953 C 248.921 86.299,248.536 86.795,248.227 87.054 C 247.765 87.442,247.667 87.639,247.667 88.184 C 247.667 88.611,247.580 88.877,247.422 88.938 C 247.097 89.062,246.167 90.941,246.167 91.472 C 246.167 91.702,246.046 92.024,245.898 92.187 C 245.704 92.401,245.631 92.802,245.636 93.617 C 245.641 94.428,245.567 94.834,245.376 95.044 C 245.014 95.445,244.797 97.106,245.017 97.790 C 245.148 98.194,245.123 98.732,244.918 99.936 C 244.685 101.303,244.676 101.671,244.859 102.397 C 244.980 102.877,245.061 104.006,245.043 104.978 C 245.019 106.300,245.076 106.829,245.284 107.228 C 245.450 107.547,245.562 108.181,245.570 108.858 C 245.580 109.664,245.663 110.053,245.875 110.287 C 246.035 110.465,246.167 110.810,246.167 111.056 C 246.167 111.324,246.333 111.647,246.583 111.864 C 246.833 112.081,247.000 112.405,247.000 112.671 C 247.000 112.915,247.150 113.251,247.333 113.417 C 247.517 113.583,247.667 113.905,247.667 114.134 C 247.667 114.362,247.929 114.869,248.250 115.261 C 248.571 115.652,248.833 116.062,248.833 116.172 C 248.833 116.494,252.965 120.461,253.709 120.852 C 253.915 120.961,254.293 121.224,254.549 121.437 C 254.805 121.650,255.330 121.915,255.716 122.025 C 256.101 122.135,256.518 122.302,256.642 122.397 C 256.765 122.491,257.090 122.551,257.363 122.531 C 257.691 122.506,258.029 122.635,258.359 122.913 C 258.746 123.239,259.045 123.333,259.685 123.333 C 260.192 123.333,260.684 123.446,260.957 123.625 C 261.733 124.133,270.049 124.060,270.780 123.539 C 271.204 123.236,271.499 123.168,272.252 123.200 C 273.067 123.234,273.233 123.187,273.484 122.854 C 273.684 122.589,273.908 122.486,274.199 122.524 C 274.432 122.555,274.802 122.497,275.020 122.396 C 275.238 122.295,275.689 122.095,276.022 121.952 C 276.355 121.808,276.890 121.460,277.211 121.179 C 277.532 120.897,277.934 120.666,278.105 120.664 C 278.459 120.662,279.618 119.646,280.052 118.958 C 280.211 118.706,280.441 118.500,280.563 118.500 C 280.919 118.500,282.322 116.807,282.529 116.127 C 282.633 115.785,282.892 115.391,283.104 115.252 C 283.324 115.108,283.450 114.898,283.398 114.763 C 283.348 114.632,283.463 114.370,283.654 114.180 C 283.844 113.989,284.000 113.700,284.000 113.537 C 284.000 113.374,284.127 113.060,284.282 112.838 C 285.152 111.596,284.504 110.667,282.766 110.667 C 282.430 110.667,281.982 110.553,281.771 110.415 C 281.511 110.245,280.849 110.146,279.729 110.109 C 278.543 110.071,277.954 109.977,277.653 109.780 C 277.341 109.576,276.766 109.494,275.408 109.461 L 273.583 109.417 273.528 110.000 C 273.498 110.321,273.327 110.719,273.149 110.885 C 272.972 111.051,272.870 111.258,272.924 111.345 C 273.096 111.623,272.839 112.110,272.420 112.302 C 272.196 112.404,271.825 112.784,271.596 113.147 C 271.367 113.510,271.030 113.854,270.848 113.912 C 270.666 113.970,270.471 114.163,270.414 114.342 C 270.344 114.562,270.160 114.667,269.842 114.667 C 269.585 114.667,269.113 114.776,268.795 114.909 C 267.844 115.306,263.348 115.379,262.917 115.004 C 262.733 114.844,262.179 114.572,261.685 114.399 C 261.133 114.206,260.686 113.923,260.526 113.667 C 260.164 113.090,258.829 111.756,258.375 111.518 C 258.126 111.388,258.000 111.169,258.000 110.868 C 258.000 110.593,257.867 110.331,257.664 110.204 C 257.442 110.065,257.340 109.840,257.363 109.539 C 257.382 109.288,257.260 108.875,257.093 108.621 C 256.789 108.157,256.647 104.798,256.920 104.524 C 256.979 104.465,263.415 104.394,271.222 104.367 C 283.530 104.324,285.450 104.285,285.667 104.069 C 286.040 103.698,286.021 99.699,285.641 98.667 C 285.472 98.208,285.366 97.425,285.368 96.649 C 285.370 95.866,285.275 95.165,285.118 94.816 C 284.979 94.505,284.818 93.810,284.762 93.273 C 284.706 92.736,284.549 92.138,284.413 91.944 C 284.278 91.751,284.167 91.427,284.167 91.226 C 284.167 91.024,283.979 90.636,283.750 90.364 C 283.521 90.091,283.333 89.697,283.333 89.487 C 283.333 88.948,282.695 87.693,282.317 87.491 C 282.124 87.388,282.000 87.144,282.001 86.869 C 282.002 86.396,281.726 86.070,279.565 84.000 C 278.943 83.404,278.038 82.523,277.554 82.042 C 277.061 81.551,276.522 81.167,276.329 81.167 C 276.139 81.167,275.810 80.979,275.598 80.750 C 275.386 80.521,275.063 80.333,274.882 80.333 C 274.700 80.333,274.416 80.183,274.250 80.000 C 274.084 79.817,273.803 79.667,273.625 79.667 C 273.448 79.667,273.123 79.525,272.904 79.353 C 272.684 79.180,272.072 78.985,271.544 78.920 C 271.016 78.855,270.478 78.715,270.349 78.609 C 270.209 78.494,269.441 78.412,268.433 78.405 C 267.196 78.397,266.609 78.320,266.217 78.114 C 265.556 77.767,264.281 77.771,263.500 78.124 M315.083 78.178 C 314.531 78.397,314.051 78.475,313.659 78.412 C 313.213 78.339,312.961 78.400,312.633 78.658 C 312.393 78.846,312.001 79.000,311.760 79.000 C 311.520 79.000,311.282 79.106,311.232 79.237 C 311.182 79.367,310.753 79.663,310.279 79.895 C 309.395 80.327,308.482 81.356,307.744 82.748 C 307.415 83.369,306.429 84.151,306.228 83.950 C 306.047 83.769,305.798 82.549,305.650 81.112 C 305.478 79.446,305.319 79.045,304.776 78.908 C 303.742 78.649,295.516 78.912,295.214 79.214 C 294.822 79.606,294.743 122.476,295.133 122.867 C 295.373 123.107,304.127 123.351,305.469 123.155 C 306.726 122.971,306.634 123.992,306.695 109.667 C 306.746 97.762,306.773 96.705,307.042 96.173 C 307.202 95.856,307.333 95.249,307.333 94.824 C 307.333 94.263,307.425 93.969,307.667 93.750 C 307.851 93.583,308.000 93.237,308.000 92.974 C 308.000 92.712,308.150 92.219,308.333 91.877 C 308.517 91.535,308.671 91.179,308.676 91.086 C 308.691 90.819,310.761 89.277,311.474 89.000 C 311.829 88.862,312.250 88.640,312.411 88.506 C 312.814 88.170,316.620 88.246,317.013 88.598 C 317.158 88.727,317.447 88.833,317.656 88.833 C 317.864 88.833,318.258 89.021,318.530 89.250 C 319.295 89.893,320.333 89.614,320.333 88.766 C 320.333 88.557,320.483 88.249,320.667 88.083 C 320.892 87.879,321.000 87.570,321.000 87.125 C 321.000 86.722,321.128 86.306,321.333 86.045 C 321.517 85.812,321.667 85.437,321.667 85.212 C 321.667 84.987,321.817 84.612,322.000 84.379 C 322.183 84.146,322.334 83.759,322.334 83.519 C 322.335 83.279,322.456 82.858,322.603 82.583 C 322.825 82.169,323.306 80.545,323.327 80.137 C 323.341 79.879,321.510 79.000,320.958 79.000 C 320.557 79.000,320.303 78.894,320.145 78.661 C 319.961 78.388,319.721 78.317,318.917 78.299 C 318.367 78.287,317.675 78.177,317.380 78.055 C 316.656 77.755,316.074 77.787,315.083 78.178 M348.167 78.187 C 347.725 78.424,347.395 78.475,346.807 78.397 C 346.147 78.310,345.985 78.348,345.728 78.647 C 345.561 78.843,345.228 79.000,344.982 79.000 C 344.698 79.000,344.444 79.143,344.278 79.398 C 344.135 79.616,343.695 79.952,343.300 80.144 C 342.460 80.552,341.667 81.249,341.667 81.579 C 341.667 81.956,340.947 82.958,340.537 83.151 C 340.328 83.250,339.998 83.599,339.805 83.928 C 339.309 84.768,339.172 84.433,339.169 82.365 C 339.166 80.123,338.941 79.204,338.355 79.040 C 337.776 78.877,329.546 78.880,328.963 79.044 C 328.044 79.301,328.087 78.282,328.039 100.916 C 327.991 123.276,327.968 122.642,328.816 122.993 C 329.648 123.338,339.085 123.154,339.453 122.786 C 339.732 122.506,339.752 121.741,339.787 110.162 C 339.818 99.436,339.857 97.772,340.080 97.340 C 340.221 97.067,340.385 96.260,340.444 95.547 C 340.516 94.669,340.650 94.122,340.859 93.853 C 341.028 93.634,341.167 93.296,341.168 93.103 C 341.168 92.909,341.318 92.525,341.500 92.250 C 341.682 91.975,341.832 91.625,341.832 91.472 C 341.835 90.888,342.431 90.190,343.368 89.675 C 343.901 89.382,344.553 88.960,344.818 88.738 C 345.472 88.187,349.268 88.123,350.300 88.645 C 352.569 89.791,353.033 89.894,353.341 89.319 C 353.443 89.128,353.483 88.928,353.430 88.874 C 353.376 88.820,353.436 88.618,353.562 88.425 C 353.918 87.882,354.833 85.515,354.833 85.138 C 354.833 84.953,354.943 84.602,355.076 84.359 C 355.721 83.186,356.027 82.262,355.931 81.781 C 355.869 81.468,355.922 81.140,356.072 80.911 C 356.597 80.110,355.439 79.000,354.079 79.000 C 353.680 79.000,353.308 78.880,353.094 78.682 C 352.847 78.455,352.399 78.337,351.510 78.268 C 350.829 78.214,350.195 78.095,350.102 78.002 C 349.842 77.742,348.814 77.840,348.167 78.187 M377.167 78.120 C 376.601 78.283,375.675 78.378,374.750 78.367 C 373.030 78.346,370.507 78.846,369.798 79.347 C 369.550 79.523,369.165 79.667,368.944 79.667 C 368.722 79.667,368.447 79.779,368.333 79.917 C 368.219 80.054,368.041 80.167,367.938 80.167 C 366.429 80.172,361.833 84.686,361.833 86.162 C 361.833 86.446,361.705 86.738,361.524 86.866 C 361.107 87.159,360.333 88.830,360.333 89.437 C 360.333 90.499,361.070 90.861,363.229 90.861 C 363.644 90.861,364.266 91.005,364.611 91.181 C 365.047 91.403,365.593 91.502,366.410 91.506 C 367.111 91.509,367.751 91.608,368.000 91.750 C 369.147 92.405,370.833 91.845,370.833 90.808 C 370.833 90.563,371.024 90.213,371.292 89.968 C 371.544 89.737,372.036 89.198,372.386 88.770 C 373.322 87.627,374.776 86.998,376.833 86.846 C 378.862 86.697,382.821 86.963,383.180 87.273 C 383.325 87.398,383.629 87.500,383.856 87.500 C 384.303 87.500,385.667 89.141,385.667 89.679 C 385.667 89.831,385.819 90.149,386.006 90.386 C 386.308 90.771,386.339 91.017,386.297 92.697 L 386.250 94.578 385.661 94.674 C 385.337 94.726,384.987 94.822,384.882 94.886 C 384.778 94.951,384.298 95.079,383.816 95.170 C 383.334 95.261,382.802 95.461,382.634 95.613 C 382.418 95.808,382.069 95.881,381.455 95.859 C 380.912 95.839,380.395 95.930,380.083 96.099 C 379.808 96.248,379.185 96.400,378.699 96.437 C 378.213 96.473,377.568 96.606,377.267 96.732 C 376.965 96.858,376.238 97.014,375.651 97.078 C 375.064 97.142,374.283 97.332,373.917 97.499 C 373.515 97.683,372.863 97.804,372.275 97.805 C 371.532 97.806,371.215 97.885,370.942 98.140 C 370.705 98.360,370.373 98.466,369.966 98.454 C 369.618 98.443,369.218 98.549,369.049 98.696 C 368.885 98.840,368.391 98.996,367.952 99.042 C 367.512 99.089,367.019 99.249,366.855 99.397 C 366.691 99.545,366.432 99.667,366.279 99.667 C 366.125 99.667,365.850 99.817,365.667 100.000 C 365.483 100.183,365.209 100.333,365.057 100.333 C 364.209 100.333,362.051 102.169,361.384 103.458 C 361.134 103.939,360.811 104.371,360.665 104.417 C 360.358 104.515,359.667 105.849,359.667 106.344 C 359.667 106.528,359.538 106.875,359.381 107.115 C 358.825 107.962,358.827 114.239,359.383 115.283 C 359.539 115.577,359.667 115.920,359.667 116.046 C 359.667 116.172,359.850 116.448,360.074 116.658 C 360.299 116.869,360.505 117.273,360.533 117.557 C 360.569 117.923,360.743 118.180,361.133 118.442 C 361.435 118.645,361.853 119.135,362.061 119.530 C 362.300 119.984,362.651 120.351,363.011 120.525 C 363.326 120.676,363.754 121.032,363.963 121.316 C 364.256 121.714,364.471 121.833,364.896 121.833 C 365.237 121.833,365.564 121.961,365.750 122.167 C 365.916 122.350,366.198 122.500,366.377 122.500 C 366.556 122.500,366.925 122.688,367.197 122.917 C 367.553 123.216,367.889 123.333,368.392 123.333 C 368.788 123.333,369.272 123.459,369.505 123.623 C 370.150 124.076,376.662 124.040,377.169 123.581 C 377.386 123.385,377.794 123.258,378.258 123.243 C 378.684 123.228,379.131 123.100,379.305 122.942 C 379.473 122.791,379.829 122.663,380.096 122.659 C 380.364 122.655,381.004 122.411,381.519 122.117 C 382.034 121.824,382.849 121.358,383.330 121.083 C 383.812 120.808,384.665 120.190,385.227 119.708 C 386.773 118.383,387.667 118.321,387.667 119.538 C 387.667 119.957,387.780 120.349,387.958 120.546 C 388.126 120.731,388.254 121.146,388.260 121.521 C 388.269 122.052,388.378 122.265,388.844 122.663 L 389.417 123.153 394.333 123.158 C 397.037 123.160,399.419 123.117,399.625 123.062 C 400.010 122.958,400.162 122.286,399.844 122.090 C 399.614 121.948,398.895 120.338,398.774 119.695 C 398.717 119.389,398.526 118.957,398.351 118.735 C 398.116 118.436,398.055 118.162,398.118 117.693 C 398.181 117.219,398.087 116.811,397.749 116.096 C 397.415 115.391,397.333 115.040,397.439 114.776 C 397.748 114.007,397.449 89.118,397.125 88.623 C 396.965 88.379,396.833 87.869,396.833 87.490 C 396.833 85.793,394.729 82.140,393.532 81.760 C 393.359 81.705,392.977 81.362,392.684 80.997 C 392.267 80.477,392.037 80.333,391.628 80.333 C 391.340 80.333,390.950 80.189,390.761 80.013 C 390.237 79.524,388.747 79.000,387.882 79.000 C 387.380 79.000,386.997 78.898,386.787 78.708 C 386.520 78.467,386.118 78.414,384.441 78.399 C 383.191 78.389,381.982 78.277,381.281 78.108 C 379.877 77.768,378.370 77.773,377.167 78.120 M120.099 79.150 C 119.802 79.477,119.791 80.120,119.818 95.251 C 119.845 110.223,119.888 111.641,120.323 111.910 C 120.422 111.971,120.500 112.559,120.500 113.239 C 120.500 114.102,120.571 114.518,120.742 114.660 C 120.875 114.770,121.033 115.187,121.093 115.587 C 121.152 115.986,121.344 116.442,121.517 116.599 C 121.691 116.756,121.833 117.095,121.833 117.352 C 121.833 117.673,122.042 118.033,122.500 118.500 C 122.867 118.874,123.167 119.285,123.167 119.414 C 123.167 119.730,124.951 121.167,125.343 121.167 C 125.514 121.167,125.735 121.317,125.833 121.500 C 125.934 121.688,126.182 121.833,126.402 121.833 C 126.617 121.833,126.895 121.957,127.021 122.109 C 127.147 122.261,127.475 122.490,127.750 122.619 C 128.025 122.748,128.438 122.960,128.667 123.091 C 128.921 123.235,129.292 123.290,129.617 123.230 C 130.012 123.158,130.286 123.229,130.673 123.504 C 131.104 123.812,131.403 123.873,132.389 123.858 C 133.046 123.848,133.883 123.836,134.250 123.831 C 134.617 123.825,135.593 123.843,136.420 123.869 C 137.778 123.912,137.972 123.879,138.413 123.533 C 138.800 123.228,139.027 123.170,139.509 123.251 C 140.007 123.336,140.208 123.277,140.625 122.926 C 140.905 122.691,141.239 122.538,141.368 122.588 C 141.497 122.637,141.779 122.525,141.994 122.339 C 142.208 122.153,142.521 122.000,142.688 122.000 C 142.856 122.000,143.109 121.821,143.253 121.603 C 143.396 121.384,143.721 121.164,143.976 121.113 C 144.488 121.011,145.125 120.469,147.329 118.256 C 148.148 117.434,148.855 116.799,148.901 116.845 C 148.946 116.891,149.007 118.260,149.036 119.888 C 149.078 122.284,149.136 122.878,149.336 123.005 C 149.976 123.410,159.098 123.283,159.662 122.862 L 160.083 122.547 160.126 101.020 L 160.168 79.492 159.709 79.309 C 159.427 79.197,157.416 79.104,154.500 79.068 C 151.887 79.036,149.556 78.963,149.318 78.907 C 148.263 78.657,148.312 77.926,148.344 93.194 C 148.371 106.352,148.358 107.030,148.069 107.349 C 147.846 107.595,147.771 107.926,147.786 108.591 C 147.798 109.089,147.735 109.541,147.647 109.595 C 147.359 109.774,146.679 110.965,146.592 111.446 C 146.545 111.705,146.408 111.991,146.287 112.083 C 146.166 112.175,145.608 112.606,145.046 113.042 C 144.485 113.477,143.924 113.833,143.800 113.833 C 143.676 113.833,143.389 113.963,143.162 114.123 C 141.542 115.259,136.957 115.783,136.023 114.938 C 135.859 114.789,135.596 114.667,135.440 114.667 C 135.057 114.667,132.333 111.930,132.333 111.546 C 132.333 111.378,132.229 111.091,132.101 110.909 C 131.942 110.682,131.835 109.812,131.764 108.163 C 131.707 106.836,131.573 104.940,131.466 103.949 C 131.318 102.573,131.321 99.571,131.479 91.199 C 131.632 83.053,131.637 80.114,131.497 79.720 C 131.255 79.038,130.542 78.759,129.685 79.010 C 129.015 79.206,121.533 79.141,120.829 78.933 C 120.510 78.839,120.332 78.892,120.099 79.150 M269.079 87.317 C 269.265 87.485,269.755 87.748,270.168 87.902 C 270.651 88.081,271.019 88.356,271.202 88.674 C 271.357 88.945,271.658 89.246,271.869 89.342 C 272.304 89.540,272.833 90.366,272.833 90.845 C 272.833 91.021,272.983 91.258,273.167 91.372 C 273.383 91.507,273.500 91.761,273.500 92.094 C 273.500 92.423,273.646 92.746,273.905 92.989 C 274.304 93.364,274.385 95.238,274.070 96.792 L 273.994 97.167 265.622 97.164 C 261.017 97.163,257.168 97.106,257.067 97.039 C 256.628 96.745,256.643 93.930,257.087 93.328 C 257.334 92.994,257.500 92.543,257.500 92.208 C 257.500 91.842,257.668 91.434,257.983 91.032 C 258.249 90.694,258.519 90.229,258.583 90.000 C 258.734 89.466,260.136 88.167,260.562 88.167 C 260.741 88.167,261.251 87.933,261.695 87.648 C 263.041 86.785,268.232 86.552,269.079 87.317 M90.288 87.333 C 90.521 87.517,90.805 87.667,90.919 87.667 C 91.033 87.667,91.219 87.779,91.333 87.917 C 91.447 88.054,91.753 88.167,92.012 88.167 C 92.271 88.167,92.543 88.274,92.617 88.405 C 92.690 88.535,93.242 89.154,93.844 89.780 C 94.868 90.844,95.833 92.284,95.833 92.745 C 95.833 92.857,95.983 93.084,96.167 93.250 C 96.408 93.469,96.500 93.763,96.500 94.320 C 96.500 94.753,96.636 95.343,96.813 95.672 C 97.283 96.549,97.279 104.442,96.808 105.331 C 96.639 105.650,96.498 106.138,96.496 106.414 C 96.494 106.691,96.344 107.244,96.163 107.643 C 95.982 108.043,95.833 108.544,95.833 108.756 C 95.833 108.969,95.702 109.272,95.542 109.430 C 95.038 109.926,94.669 110.569,94.668 110.954 C 94.667 111.191,94.498 111.412,94.200 111.566 C 93.943 111.699,93.416 112.151,93.030 112.571 C 92.643 112.990,92.182 113.333,92.006 113.333 C 91.830 113.333,91.644 113.402,91.592 113.487 C 91.110 114.266,87.440 115.184,86.191 114.837 C 85.857 114.744,85.201 114.668,84.734 114.668 C 84.093 114.667,83.810 114.584,83.578 114.327 C 83.409 114.141,83.170 114.027,83.047 114.074 C 82.924 114.121,82.589 113.937,82.304 113.663 C 82.018 113.390,81.714 113.167,81.628 113.167 C 81.428 113.167,80.006 111.797,80.003 111.601 C 79.999 111.407,78.875 109.712,78.663 109.581 C 78.573 109.526,78.500 109.209,78.500 108.878 C 78.500 108.540,78.373 108.136,78.210 107.956 C 78.002 107.726,77.914 107.322,77.897 106.526 C 77.885 105.913,77.749 105.118,77.594 104.750 C 77.439 104.383,77.323 103.821,77.335 103.500 C 77.346 103.179,77.362 102.729,77.370 102.500 C 77.378 102.271,77.360 101.183,77.330 100.083 C 77.287 98.482,77.331 97.980,77.548 97.563 C 77.697 97.277,77.869 96.527,77.929 95.897 C 77.989 95.266,78.142 94.532,78.269 94.266 C 78.396 94.000,78.500 93.580,78.500 93.334 C 78.500 93.087,78.650 92.749,78.833 92.583 C 79.017 92.417,79.167 92.211,79.167 92.125 C 79.167 92.040,79.317 91.779,79.500 91.545 C 79.683 91.312,79.833 90.985,79.833 90.817 C 79.833 90.396,80.974 89.307,82.055 88.697 C 82.550 88.418,83.001 88.071,83.056 87.928 C 83.111 87.784,83.330 87.667,83.543 87.667 C 83.755 87.667,84.339 87.519,84.840 87.339 C 86.185 86.855,89.675 86.852,90.288 87.333 M386.107 101.794 C 386.306 101.923,386.521 105.014,386.496 107.417 C 386.485 108.457,386.411 108.849,386.158 109.202 C 385.979 109.450,385.833 109.910,385.833 110.223 C 385.833 110.536,385.725 110.882,385.593 110.992 C 385.461 111.101,385.330 111.392,385.302 111.637 C 385.264 111.962,385.086 112.159,384.647 112.365 C 384.316 112.521,383.634 113.102,383.131 113.657 C 382.562 114.287,382.085 114.667,381.865 114.667 C 381.671 114.667,381.431 114.817,381.333 115.000 C 381.214 115.222,380.984 115.333,380.643 115.333 C 380.337 115.333,379.927 115.505,379.623 115.761 C 379.295 116.037,378.990 116.159,378.765 116.103 C 378.224 115.969,375.800 115.951,375.318 116.077 C 374.991 116.162,374.763 116.086,374.380 115.763 C 374.101 115.529,373.733 115.312,373.562 115.280 C 372.547 115.095,370.833 113.497,370.833 112.737 C 370.833 112.575,370.731 112.325,370.605 112.180 C 370.259 111.781,370.111 108.254,370.429 107.990 C 370.560 107.881,370.667 107.616,370.667 107.400 C 370.667 107.114,370.838 106.918,371.292 106.684 C 371.930 106.354,372.330 105.963,372.660 105.347 C 372.786 105.110,373.009 105.000,373.362 105.000 C 373.704 105.000,374.014 104.854,374.280 104.566 C 374.621 104.198,374.772 104.149,375.275 104.244 C 375.724 104.328,375.947 104.282,376.201 104.052 C 376.448 103.828,376.822 103.746,377.642 103.735 C 378.480 103.724,378.903 103.628,379.378 103.342 C 379.881 103.039,380.149 102.984,380.715 103.069 C 381.313 103.159,381.513 103.109,382.003 102.744 C 382.482 102.388,382.701 102.330,383.253 102.411 C 383.802 102.491,384.026 102.433,384.494 102.088 C 385.054 101.675,385.730 101.552,386.107 101.794 M196.057 102.018 C 196.965 102.432,197.164 103.861,196.685 106.527 C 196.493 107.597,196.325 108.927,196.313 109.483 C 196.297 110.166,196.207 110.564,196.035 110.706 C 195.895 110.822,195.615 111.272,195.414 111.707 C 195.009 112.580,193.690 114.000,193.285 114.000 C 193.142 114.000,192.683 114.262,192.264 114.581 C 191.834 114.909,191.213 115.209,190.838 115.269 C 190.472 115.327,190.087 115.478,189.983 115.604 C 189.702 115.942,184.863 115.937,184.733 115.598 C 184.683 115.469,184.479 115.322,184.279 115.272 C 184.079 115.222,183.503 114.804,182.999 114.343 C 182.495 113.882,182.028 113.504,181.961 113.503 C 181.006 113.483,180.543 109.312,181.309 107.634 C 181.506 107.204,181.667 106.787,181.667 106.707 C 181.667 106.269,183.425 105.167,184.124 105.167 C 184.303 105.167,184.584 105.017,184.750 104.833 C 184.953 104.609,185.263 104.500,185.701 104.500 C 186.058 104.500,186.574 104.384,186.847 104.243 C 187.121 104.101,187.827 103.928,188.417 103.857 C 189.007 103.786,189.623 103.610,189.787 103.466 C 189.982 103.294,190.414 103.202,191.050 103.199 C 191.602 103.196,192.174 103.091,192.383 102.954 C 192.585 102.823,193.179 102.661,193.704 102.596 C 194.246 102.528,194.822 102.340,195.037 102.161 C 195.488 101.785,195.532 101.779,196.057 102.018 " stroke="none" fill-rule="evenodd"></path></g></svg>